# xmcd CD database file
#
# Track frame offsets:
#	150
#	15561
#	34183
#	50116
#	71932
#	83967
#	98451
#	117577
#	141571
#	157339
#	175499
#	191585
#	213513
#	226526
#
# Disc length: 3494 seconds
#
# Revision: 0
# Processed by: cddbd v1.4PL0 Copyright (c) Steve Scherf et al.
# Submitted via: CDex 1.40Release
#
DISCID=ce0da40e
DTITLE=Jackie Payne and Steve Edmonson - Partners in the Blues
DYEAR=2003
DGENRE=Blues
TTITLE0=I'm A Lonely Man
TTITLE1=I'm Doin' My Own Thing
TTITLE2=Close To You
TTITLE3=That's How Strong My Love Is
TTITLE4=I Don't Believe
TTITLE5=Think Twice Before You Speak
TTITLE6=Sweet Candyman
TTITLE7=Tell It Like It Is
TTITLE8=The Devil's Hand
TTITLE9=Monday Morning Comin' Down
TTITLE10=Side Tracked
TTITLE11=My Money Just Ain't Long Enough
TTITLE12=Cryin' For My Baby
TTITLE13=I Need Your Love So Bad
EXTD=YEAR: 2003 ID3G: 0
EXTT0=
EXTT1=
EXTT2=
EXTT3=
EXTT4=
EXTT5=
EXTT6=
EXTT7=
EXTT8=
EXTT9=
EXTT10=
EXTT11=
EXTT12=
EXTT13=
PLAYORDER=
